<svg width="96" height="96" viewBox="0 0 96 96" fill="none" xmlns="http://www.w3.org/2000/svg">
<g clip-path="url(#clip0_185_134)">
<path d="M72 24H64C64 15.16 56.84 8 48 8C39.16 8 32 15.16 32 24H24C19.6 24 16 27.6 16 32V80C16 84.4 19.6 88 24 88H72C76.4 88 80 84.4 80 80V32C80 27.6 76.4 24 72 24ZM40 40C40 42.2 38.2 44 36 44C33.8 44 32 42.2 32 40V32H40V40ZM48 16C52.4 16 56 19.6 56 24H40C40 19.6 43.6 16 48 16ZM64 40C64 42.2 62.2 44 60 44C57.8 44 56 42.2 56 40V32H64V40Z" fill="white"/>
</g>
<defs>
<clipPath id="clip0_185_134">
<rect width="96" height="96" fill="white"/>
</clipPath>
</defs>
</svg>
